<svg width="46" height="46" viewBox="0 0 46 46" fill="none" xmlns="http://www.w3.org/2000/svg">
<path d="M42.6575 0.901245H3.34253C2.69606 0.901245 2.07608 1.15805 1.61896 1.61517C1.16184 2.07229 0.905029 2.69228 0.905029 3.33875V42.6575C0.905029 43.304 1.16184 43.924 1.61896 44.3811C2.07608 44.8382 2.69606 45.095 3.34253 45.095H24.5V27.9837H18.7475V21.3125H24.5V16.3925C24.5 10.685 27.9875 7.57625 33.08 7.57625C34.7985 7.57012 36.5161 7.65775 38.225 7.83875V13.805H34.7038C31.9325 13.805 31.3963 15.1212 31.3963 17.0525V21.3125H38L37.1413 27.9837H31.3963V45.0987H42.6463C43.2924 45.0978 43.9119 44.8406 44.3688 44.3837C44.8257 43.9268 45.0828 43.3074 45.0838 42.6612V3.3425C45.0848 2.69733 44.83 2.07807 44.3752 1.62047C43.9204 1.16286 43.3027 0.904222 42.6575 0.901245Z" fill="white"/>
</svg>
