<svg width="48" height="48" viewBox="0 0 48 48" fill="none" xmlns="http://www.w3.org/2000/svg">
<path d="M32.48 44C31.9495 44 31.4408 43.7893 31.0658 43.4142C30.6907 43.0391 30.48 42.5304 30.48 42V36.8C30.5421 36.2018 30.4781 35.5973 30.2921 35.0254C30.1061 34.4536 29.8021 33.9271 29.4 33.48C29.151 33.2099 28.9812 32.8765 28.9092 32.5163C28.8371 32.1561 28.8657 31.7831 28.9917 31.4381C29.1178 31.093 29.3364 30.7894 29.6236 30.5604C29.9108 30.3314 30.2555 30.186 30.62 30.14C35.5 29.56 40 28 40 19.54C40.0015 17.9601 39.5353 16.4152 38.66 15.1C37.8523 13.8892 37.5574 12.4077 37.84 10.98C38.0202 10.0486 38.0202 9.09135 37.84 8.15999C36.3424 8.66634 34.9323 9.40174 33.66 10.34C33.4194 10.5108 33.144 10.6263 32.8536 10.6782C32.5631 10.73 32.2648 10.717 31.98 10.64C28.3706 9.6201 24.5493 9.6201 20.94 10.64C20.6552 10.717 20.3568 10.73 20.0664 10.6782C19.7759 10.6263 19.5005 10.5108 19.26 10.34C17.9799 9.39087 16.5548 8.65472 15.04 8.15999C14.8498 9.09037 14.8498 10.0496 15.04 10.98C15.3021 12.4257 14.9939 13.9167 14.18 15.14C13.3085 16.4644 12.8428 18.0145 12.84 19.6C12.84 27.38 16.6 29.46 22.24 30.18C22.609 30.2258 22.958 30.3736 23.2477 30.6067C23.5374 30.8399 23.7564 31.1492 23.88 31.5C23.9963 31.8403 24.0186 32.2057 23.9447 32.5577C23.8708 32.9097 23.7033 33.2352 23.46 33.5C23.071 33.9158 22.7724 34.4077 22.5831 34.9447C22.3937 35.4817 22.3178 36.0522 22.36 36.62V42C22.36 42.5304 22.1493 43.0391 21.7742 43.4142C21.3991 43.7893 20.8904 44 20.36 44C19.8295 44 19.3208 43.7893 18.9458 43.4142C18.5707 43.0391 18.36 42.5304 18.36 42V40.86C16.3947 41.086 14.404 40.8227 12.5651 40.0934C10.7262 39.3641 9.09617 38.1915 7.81998 36.68C7.16399 35.9529 6.37694 35.3558 5.49998 34.92C5.24522 34.8543 5.00588 34.7391 4.79563 34.581C4.58539 34.4228 4.40835 34.2248 4.27464 33.9982C4.14092 33.7716 4.05314 33.521 4.01631 33.2605C3.97948 33 3.99432 32.7348 4.05998 32.48C4.12564 32.2252 4.24084 31.9859 4.39899 31.7756C4.55715 31.5654 4.75517 31.3884 4.98175 31.2546C5.20832 31.1209 5.45901 31.0332 5.71951 30.9963C5.98001 30.9595 6.24521 30.9743 6.49998 31.04C8.03848 31.6005 9.41318 32.5353 10.5 33.76C12.5 35.76 14.5 37.52 18.3 36.8C18.2332 35.7262 18.3898 34.6502 18.76 33.64C14.64 32.6 8.75998 29.64 8.75998 19.64C8.75471 17.2712 9.4506 14.9539 10.76 12.98C11.0032 12.6156 11.0963 12.1714 11.02 11.74C10.6158 9.58114 10.8451 7.35146 11.68 5.31999C11.7934 5.04912 11.9651 4.80655 12.1829 4.60953C12.4007 4.4125 12.6591 4.26585 12.94 4.17999C13.62 3.97999 16.06 3.57999 20.68 6.57999C24.4199 5.68 28.32 5.68 32.06 6.57999C36.68 3.57999 39.12 3.95999 39.78 4.17999C40.0608 4.26585 40.3193 4.4125 40.5371 4.60953C40.7548 4.80655 40.9265 5.04912 41.04 5.31999C41.8766 7.35806 42.1058 9.5946 41.7 11.76C41.6591 11.9551 41.6574 12.1564 41.6952 12.3521C41.733 12.5479 41.8094 12.7341 41.92 12.9C43.2331 14.8796 43.9292 17.2044 43.92 19.58C43.92 29.72 38.08 32.66 33.92 33.58C34.2864 34.6532 34.436 35.7885 34.36 36.92V42C34.3609 42.5103 34.1667 43.0016 33.8172 43.3734C33.4677 43.7452 32.9893 43.9694 32.48 44Z" fill="#F8F8F8"/>
</svg>
